<svg width="375" height="91" viewBox="0 0 375 91" fill="none" xmlns="http://www.w3.org/2000/svg">
<path d="M77.4106 85.8516L80.9028 5.28517L80.8833 5.27345C80.9692 3.72267 80.2739 2.1797 78.8872 1.27735C77.6411 0.468759 76.1489 0.375009 74.8559 0.871103L74.8481 0.863291L74.7973 0.890634C74.5551 0.98829 74.3247 1.10938 74.102 1.25001L3.23874 37.6836V37.6875C2.44968 38.0274 1.74655 38.5938 1.24265 39.3711C-0.112824 41.457 0.469208 44.2344 2.53561 45.5781L70.4848 89.7344C72.5512 91.0781 75.3247 90.4766 76.6801 88.3945C77.1919 87.6094 77.4262 86.7227 77.4106 85.8516Z" fill="#23B5B5"/>
<path d="M92.9844 45V41.9238L95.709 41.3965V23.0273L92.9844 22.5V19.4062H103.566V22.5L100.842 23.0273V41.3965L103.566 41.9238V45H92.9844ZM106.045 45V41.9238L108.506 41.3965V29.6016L105.781 29.0742V25.9805H113.287L113.48 28.3359L113.516 28.7578C114.453 26.6719 115.859 25.6289 117.734 25.6289C118.039 25.6289 118.367 25.6523 118.719 25.6992C119.082 25.7461 119.41 25.8164 119.703 25.9102L119.158 30.6387L116.609 30.498C115.883 30.4629 115.291 30.5859 114.834 30.8672C114.389 31.1484 113.99 31.5527 113.639 32.0801V41.3965L116.1 41.9238V45H106.045ZM129.951 45.3691C128.064 45.3691 126.447 44.959 125.1 44.1387C123.764 43.3184 122.738 42.1816 122.023 40.7285C121.309 39.2637 120.951 37.582 120.951 35.6836V35.3145C120.951 33.4277 121.309 31.7578 122.023 30.3047C122.738 28.8398 123.764 27.6973 125.1 26.877C126.447 26.0449 128.053 25.6289 129.916 25.6289C131.791 25.6289 133.396 26.0391 134.732 26.8594C136.08 27.6797 137.111 28.8223 137.826 30.2871C138.541 31.7402 138.898 33.416 138.898 35.3145V35.6836C138.898 37.582 138.541 39.2637 137.826 40.7285C137.111 42.1816 136.086 43.3184 134.75 44.1387C133.414 44.959 131.814 45.3691 129.951 45.3691ZM129.951 41.4316C131.275 41.4316 132.242 40.9043 132.852 39.8496C133.473 38.7949 133.783 37.4062 133.783 35.6836V35.3145C133.783 33.627 133.473 32.25 132.852 31.1836C132.23 30.1172 131.252 29.584 129.916 29.584C128.58 29.584 127.607 30.1172 126.998 31.1836C126.389 32.25 126.084 33.627 126.084 35.3145V35.6836C126.084 37.418 126.389 38.8125 126.998 39.8672C127.607 40.9102 128.592 41.4316 129.951 41.4316ZM141.008 45V41.9238L143.469 41.3965V29.6016L140.744 29.0742V25.9805H148.25L148.479 28.7051C149.111 27.7324 149.891 26.9766 150.816 26.4375C151.754 25.8984 152.82 25.6289 154.016 25.6289C155.891 25.6289 157.361 26.2324 158.428 27.4395C159.506 28.6465 160.045 30.5391 160.045 33.1172V41.3965L162.506 41.9238V45H152.697V41.9238L154.895 41.3965V33.1348C154.895 31.8574 154.637 30.9551 154.121 30.4277C153.617 29.8887 152.873 29.6191 151.889 29.6191C150.459 29.6191 149.363 30.2168 148.602 31.4121V41.3965L150.676 41.9238V45H141.008ZM178.783 45V41.9238L181.525 41.3965V23.3613H176.867L176.586 26.4199H172.701V19.4062H195.535V26.4199H191.633L191.352 23.3613H186.658V41.3965L189.418 41.9238V45H178.783ZM205.15 45.3691C203.322 45.3691 201.729 44.9707 200.369 44.1738C199.021 43.3652 197.973 42.2578 197.223 40.8516C196.484 39.4453 196.115 37.8398 196.115 36.0352V35.332C196.115 33.4453 196.467 31.7754 197.17 30.3223C197.873 28.8574 198.863 27.709 200.141 26.877C201.43 26.0332 202.947 25.6172 204.693 25.6289C207.26 25.6289 209.223 26.3848 210.582 27.8965C211.941 29.3965 212.621 31.5059 212.621 34.2246V37.0195H201.441L201.406 37.125C201.5 38.3789 201.916 39.4102 202.654 40.2188C203.393 41.0273 204.441 41.4316 205.801 41.4316C206.738 41.4316 207.611 41.3145 208.42 41.0801C209.24 40.834 210.037 40.4766 210.811 40.0078L212.199 43.1719C211.414 43.8047 210.424 44.332 209.229 44.7539C208.045 45.1641 206.686 45.3691 205.15 45.3691ZM201.477 33.627H207.822V33.1699C207.822 32.0215 207.582 31.1133 207.102 30.4453C206.633 29.7656 205.859 29.4258 204.781 29.4258C203.75 29.4258 202.965 29.8184 202.426 30.6035C201.887 31.377 201.553 32.3555 201.424 33.5391L201.477 33.627ZM223.941 45.3691C222.113 45.3691 220.531 44.959 219.195 44.1387C217.871 43.3184 216.852 42.1875 216.137 40.7461C215.422 39.3047 215.064 37.6465 215.064 35.7715V35.2441C215.064 33.3809 215.428 31.7285 216.154 30.2871C216.881 28.834 217.906 27.6973 219.23 26.877C220.555 26.0449 222.113 25.6289 223.906 25.6289C225.605 25.6289 227.076 25.8984 228.318 26.4375C229.561 26.9648 230.568 27.5801 231.342 28.2832L231.307 33.7324H227.439L226.754 30.3398C226.473 30.0586 226.115 29.8301 225.682 29.6543C225.248 29.4785 224.809 29.3906 224.363 29.3906C222.957 29.3906 221.908 29.9121 221.217 30.9551C220.537 31.9863 220.197 33.416 220.197 35.2441V35.7715C220.197 37.7285 220.566 39.1641 221.305 40.0781C222.043 40.9805 222.934 41.4316 223.977 41.4316C224.879 41.4316 225.6 41.1973 226.139 40.7285C226.689 40.248 227.07 39.5742 227.281 38.707H231.658L231.711 38.8125C231.406 40.8398 230.656 42.4395 229.461 43.6113C228.266 44.7832 226.426 45.3691 223.941 45.3691ZM233.732 45V41.9238L236.211 41.3965V21.1992L233.469 20.6719V17.5781H241.326V28.4062C241.924 27.5273 242.662 26.8477 243.541 26.3672C244.432 25.875 245.439 25.6289 246.564 25.6289C248.475 25.6289 249.986 26.2676 251.1 27.5449C252.225 28.8105 252.787 30.7734 252.787 33.4336V41.3965L255.248 41.9238V45H245.439V41.9238L247.654 41.3965V33.3984C247.654 32.0273 247.396 31.0547 246.881 30.4805C246.365 29.9062 245.609 29.6191 244.613 29.6191C243.172 29.6191 242.076 30.1816 241.326 31.3066V41.3965L243.541 41.9238V45H233.732ZM92.832 77V75.5234L94.7422 75.1953V61.7539L92.832 61.4258V59.9375H98.9609V61.4258L97.0508 61.7539V67.625H98.9141L102.77 62.0703C103.402 61.1953 103.953 60.6016 104.422 60.2891C104.891 59.9688 105.434 59.8086 106.051 59.8086C106.418 59.8086 106.727 59.8555 106.977 59.9492C107.234 60.0352 107.504 60.1641 107.785 60.3359L107.445 61.9648C107.234 61.9258 107.047 61.8945 106.883 61.8711C106.727 61.8398 106.57 61.8242 106.414 61.8242C106.047 61.8242 105.734 61.9219 105.477 62.1172C105.227 62.3125 104.934 62.6445 104.598 63.1133L100.93 68.2227L106.602 75.2305L108.207 75.5234V77H102.605V75.5234L103.906 75.3594L103.859 75.3008L99.2539 69.5703H97.0508V75.1953L98.9609 75.5234V77H92.832ZM114.676 77.2461C113.504 77.2461 112.492 76.9727 111.641 76.4258C110.797 75.8711 110.145 75.1094 109.684 74.1406C109.223 73.1641 108.992 72.0508 108.992 70.8008V70.543C108.992 69.293 109.223 68.1836 109.684 67.2148C110.145 66.2383 110.797 65.4727 111.641 64.918C112.492 64.3633 113.496 64.0859 114.652 64.0859C115.824 64.0859 116.832 64.3633 117.676 64.918C118.527 65.4727 119.184 66.2344 119.645 67.2031C120.105 68.1719 120.336 69.2852 120.336 70.543V70.8008C120.336 72.0586 120.105 73.1758 119.645 74.1523C119.184 75.1211 118.531 75.8789 117.688 76.4258C116.844 76.9727 115.84 77.2461 114.676 77.2461ZM114.676 75.4414C115.77 75.4414 116.602 75.0039 117.172 74.1289C117.742 73.2539 118.027 72.1445 118.027 70.8008V70.543C118.027 69.6523 117.898 68.8594 117.641 68.1641C117.391 67.4609 117.016 66.9102 116.516 66.5117C116.016 66.1055 115.395 65.9023 114.652 65.9023C113.918 65.9023 113.301 66.1055 112.801 66.5117C112.301 66.9102 111.926 67.4609 111.676 68.1641C111.426 68.8594 111.301 69.6523 111.301 70.543V70.8008C111.301 72.1445 111.582 73.2539 112.145 74.1289C112.715 75.0039 113.559 75.4414 114.676 75.4414ZM122.691 77V75.5234L124.602 75.1953V66.1367L122.691 65.8086V64.3203H127.578L131.703 73.9766H131.773L135.91 64.3203H140.715V65.8086L138.805 66.1367V75.1953L140.715 75.5234V77H134.586V75.5234L136.496 75.1953V68.1992L136.426 68.1758L132.535 77H130.941L126.98 67.9883L126.91 68.0117V75.1953L128.82 75.5234V77H122.691ZM142.895 77V75.5234L144.805 75.1953V66.1367L142.895 65.8086V64.3203H156.98V65.8086L155.07 66.1367V75.1953L156.98 75.5234V77H150.852V75.5234L152.762 75.1953V66.1484H147.113V75.1953L149.023 75.5234V77H142.895ZM166.613 68.6797C168.113 68.6797 169.281 69.0625 170.117 69.8281C170.953 70.5859 171.371 71.5742 171.371 72.793C171.371 74.0195 170.949 75.0273 170.105 75.8164C169.27 76.6055 168.105 77 166.613 77H159.254V75.5234L161.164 75.1953V66.1367L159.254 65.8086V64.3203H165.383V65.8086L163.473 66.1367V68.6797H166.613ZM166.613 75.1953C167.449 75.1953 168.062 74.9766 168.453 74.5391C168.852 74.0938 169.051 73.5391 169.051 72.875C169.051 72.2344 168.852 71.6758 168.453 71.1992C168.055 70.7227 167.441 70.4844 166.613 70.4844H163.473V75.1953H166.613ZM186.102 77.2461C185 77.2461 184.039 77.0039 183.219 76.5195C182.406 76.0352 181.762 75.3594 181.285 74.4922C180.809 73.625 180.527 72.6211 180.441 71.4805H177.348V75.1953L179.258 75.5234V77H173.129V75.5234L175.039 75.1953V66.1367L173.129 65.8086V64.3203H177.348V69.6758H180.453C180.555 68.5742 180.848 67.6055 181.332 66.7695C181.816 65.9258 182.461 65.2695 183.266 64.8008C184.07 64.3242 185.008 64.0859 186.078 64.0859C187.242 64.0859 188.25 64.3633 189.102 64.918C189.953 65.4727 190.609 66.2344 191.07 67.2031C191.531 68.1719 191.762 69.2852 191.762 70.543V70.8008C191.762 72.0586 191.531 73.1719 191.07 74.1406C190.609 75.1094 189.957 75.8711 189.113 76.4258C188.27 76.9727 187.266 77.2461 186.102 77.2461ZM186.102 75.4414C187.195 75.4414 188.027 75.0039 188.598 74.1289C189.168 73.2539 189.453 72.1445 189.453 70.8008V70.543C189.453 69.6602 189.324 68.8711 189.066 68.1758C188.816 67.4727 188.441 66.918 187.941 66.5117C187.441 66.1055 186.82 65.9023 186.078 65.9023C185.336 65.9023 184.715 66.1055 184.215 66.5117C183.723 66.918 183.352 67.4727 183.102 68.1758C182.852 68.8711 182.727 69.6602 182.727 70.543V70.8008C182.727 72.1445 183.008 73.2539 183.57 74.1289C184.141 75.0039 184.984 75.4414 186.102 75.4414ZM196.836 77V75.5234L198.746 75.1953V66.1133H196.074L195.898 68.0938H193.93V64.3203H205.93V68.0938H203.949L203.773 66.1133H201.055V75.1953L202.965 75.5234V77H196.836ZM212.621 77.2461C211.449 77.2461 210.43 76.9805 209.562 76.4492C208.695 75.9102 208.023 75.1641 207.547 74.2109C207.078 73.2578 206.844 72.1562 206.844 70.9062V70.3906C206.844 69.1875 207.09 68.1133 207.582 67.168C208.082 66.2148 208.742 65.4648 209.562 64.918C210.391 64.3633 211.293 64.0859 212.27 64.0859C213.973 64.0859 215.262 64.6016 216.137 65.6328C217.02 66.6641 217.461 68.0391 217.461 69.7578V71.1992H209.234L209.199 71.2578C209.223 72.4766 209.531 73.4805 210.125 74.2695C210.719 75.0508 211.551 75.4414 212.621 75.4414C213.402 75.4414 214.086 75.332 214.672 75.1133C215.266 74.8867 215.777 74.5781 216.207 74.1875L217.109 75.6875C216.656 76.125 216.055 76.4961 215.305 76.8008C214.562 77.0977 213.668 77.2461 212.621 77.2461ZM209.305 69.3945H215.152V69.0898C215.152 68.1836 214.91 67.4258 214.426 66.8164C213.941 66.207 213.223 65.9023 212.27 65.9023C211.496 65.9023 210.836 66.2305 210.289 66.8867C209.742 67.5352 209.406 68.3516 209.281 69.3359L209.305 69.3945ZM218.914 81.875V80.3867L220.707 80.0586V66.1367L218.797 65.8086V64.3203H222.688L222.898 65.8672C223.766 64.6797 224.98 64.0859 226.543 64.0859C227.59 64.0859 228.484 64.3711 229.227 64.9414C229.969 65.5039 230.535 66.2969 230.926 67.3203C231.316 68.3359 231.512 69.5273 231.512 70.8945V71.1406C231.512 72.3594 231.312 73.4258 230.914 74.3398C230.523 75.2539 229.961 75.9688 229.227 76.4844C228.492 76.9922 227.609 77.2461 226.578 77.2461C225.039 77.2461 223.852 76.7266 223.016 75.6875V80.0586L225.031 80.3867V81.875H218.914ZM225.863 75.4414C226.957 75.4414 227.785 75.043 228.348 74.2461C228.91 73.4492 229.191 72.4141 229.191 71.1406V70.8945C229.191 69.4492 228.91 68.2656 228.348 67.3438C227.785 66.4219 226.949 65.9609 225.84 65.9609C225.184 65.9609 224.621 66.1094 224.152 66.4062C223.684 66.7031 223.305 67.1094 223.016 67.625V73.8008C223.305 74.3242 223.68 74.7305 224.141 75.0195C224.609 75.3008 225.184 75.4414 225.863 75.4414ZM234.066 77V75.5234L235.977 75.1953V66.1367L234.066 65.8086V64.3203H240.195V65.8086L238.285 66.1367V69.8047H243.922V66.1367L242.012 65.8086V64.3203H248.152V65.8086L246.242 66.1367V75.1953L248.152 75.5234V77H242.012V75.5234L243.922 75.1953V71.6094H238.285V75.1953L240.195 75.5234V77H234.066ZM262.801 77V75.5234L264.711 75.1953V66.1367L262.801 65.8086V64.3203H267.02V75.1953L268.93 75.5234V77H262.801ZM257.785 68.6797C259.285 68.6797 260.453 69.0625 261.289 69.8281C262.125 70.5859 262.543 71.5742 262.543 72.793C262.543 74.0195 262.121 75.0273 261.277 75.8164C260.441 76.6055 259.277 77 257.785 77H250.426V75.5234L252.336 75.1953V66.1367L250.426 65.8086V64.3203H256.555V65.8086L254.645 66.1367V68.6797H257.785ZM254.645 75.1953H257.785C258.621 75.1953 259.234 74.9766 259.625 74.5391C260.023 74.0938 260.223 73.5391 260.223 72.875C260.223 72.2344 260.023 71.6758 259.625 71.1992C259.227 70.7227 258.613 70.4844 257.785 70.4844H254.645V75.1953ZM270.723 77V75.5234L272.633 75.1953V66.1367L270.723 65.8086V64.3203H276.84V65.8086L274.93 66.1367V73.2969L275 73.3203L280.59 64.3203H284.809V65.8086L282.898 66.1367V75.1953L284.809 75.5234V77H278.68V75.5234L280.59 75.1953V68.0234L280.52 68L274.93 77H270.723ZM277.836 62.0938C276.703 62.0938 275.812 61.7891 275.164 61.1797C274.516 60.5625 274.191 59.7656 274.191 58.7891L274.215 58.7188H275.973C275.973 59.2812 276.121 59.7383 276.418 60.0898C276.723 60.4414 277.195 60.6172 277.836 60.6172C278.461 60.6172 278.926 60.4414 279.23 60.0898C279.535 59.7383 279.688 59.2812 279.688 58.7188H281.457L281.48 58.7891C281.473 59.7656 281.145 60.5625 280.496 61.1797C279.855 61.7891 278.969 62.0938 277.836 62.0938ZM298.52 77.2461C297.371 77.2461 296.371 76.9805 295.52 76.4492C294.668 75.9102 294.008 75.1641 293.539 74.2109C293.07 73.2578 292.836 72.1562 292.836 70.9062V70.4141C292.836 69.2109 293.062 68.1328 293.516 67.1797C293.969 66.2266 294.621 65.4727 295.473 64.918C296.324 64.3633 297.34 64.0859 298.52 64.0859C299.543 64.0859 300.438 64.2539 301.203 64.5898C301.977 64.9258 302.625 65.3867 303.148 65.9727L303.207 69.0195H301.402L301.004 66.8047C300.738 66.5312 300.406 66.3125 300.008 66.1484C299.609 65.9844 299.141 65.9023 298.602 65.9023C297.914 65.9023 297.309 66.1055 296.785 66.5117C296.27 66.918 295.867 67.4609 295.578 68.1406C295.289 68.8203 295.145 69.5781 295.145 70.4141V70.9062C295.145 72.2969 295.445 73.4023 296.047 74.2227C296.648 75.0352 297.469 75.4414 298.508 75.4414C299.289 75.4414 299.938 75.2266 300.453 74.7969C300.969 74.3672 301.285 73.7773 301.402 73.0273H303.477L303.5 73.0977C303.461 73.8242 303.246 74.5039 302.855 75.1367C302.465 75.7695 301.906 76.2812 301.18 76.6719C300.461 77.0547 299.574 77.2461 298.52 77.2461ZM311.551 77.2461C310.379 77.2461 309.359 76.9805 308.492 76.4492C307.625 75.9102 306.953 75.1641 306.477 74.2109C306.008 73.2578 305.773 72.1562 305.773 70.9062V70.3906C305.773 69.1875 306.02 68.1133 306.512 67.168C307.012 66.2148 307.672 65.4648 308.492 64.918C309.32 64.3633 310.223 64.0859 311.199 64.0859C312.902 64.0859 314.191 64.6016 315.066 65.6328C315.949 66.6641 316.391 68.0391 316.391 69.7578V71.1992H308.164L308.129 71.2578C308.152 72.4766 308.461 73.4805 309.055 74.2695C309.648 75.0508 310.48 75.4414 311.551 75.4414C312.332 75.4414 313.016 75.332 313.602 75.1133C314.195 74.8867 314.707 74.5781 315.137 74.1875L316.039 75.6875C315.586 76.125 314.984 76.4961 314.234 76.8008C313.492 77.0977 312.598 77.2461 311.551 77.2461ZM308.234 69.3945H314.082V69.0898C314.082 68.1836 313.84 67.4258 313.355 66.8164C312.871 66.207 312.152 65.9023 311.199 65.9023C310.426 65.9023 309.766 66.2305 309.219 66.8867C308.672 67.5352 308.336 68.3516 308.211 69.3359L308.234 69.3945ZM317.844 81.875V80.3867L319.637 80.0586V66.1367L317.727 65.8086V64.3203H321.617L321.828 65.8672C322.695 64.6797 323.91 64.0859 325.473 64.0859C326.52 64.0859 327.414 64.3711 328.156 64.9414C328.898 65.5039 329.465 66.2969 329.855 67.3203C330.246 68.3359 330.441 69.5273 330.441 70.8945V71.1406C330.441 72.3594 330.242 73.4258 329.844 74.3398C329.453 75.2539 328.891 75.9688 328.156 76.4844C327.422 76.9922 326.539 77.2461 325.508 77.2461C323.969 77.2461 322.781 76.7266 321.945 75.6875V80.0586L323.961 80.3867V81.875H317.844ZM324.793 75.4414C325.887 75.4414 326.715 75.043 327.277 74.2461C327.84 73.4492 328.121 72.4141 328.121 71.1406V70.8945C328.121 69.4492 327.84 68.2656 327.277 67.3438C326.715 66.4219 325.879 65.9609 324.77 65.9609C324.113 65.9609 323.551 66.1094 323.082 66.4062C322.613 66.7031 322.234 67.1094 321.945 67.625V73.8008C322.234 74.3242 322.609 74.7305 323.07 75.0195C323.539 75.3008 324.113 75.4414 324.793 75.4414ZM332.996 77V75.5234L334.906 75.1953V66.1367L332.996 65.8086V64.3203H339.898C341.57 64.3203 342.867 64.6133 343.789 65.1992C344.711 65.7773 345.172 66.6484 345.172 67.8125C345.172 68.4062 344.992 68.9375 344.633 69.4062C344.273 69.8672 343.766 70.2188 343.109 70.4609C343.898 70.6562 344.516 71.0234 344.961 71.5625C345.406 72.0938 345.629 72.7031 345.629 73.3906C345.629 74.5781 345.195 75.4766 344.328 76.0859C343.469 76.6953 342.262 77 340.707 77H332.996ZM337.215 69.6758H339.91C341.879 69.6758 342.863 69.0938 342.863 67.9297C342.863 66.7188 341.875 66.1133 339.898 66.1133H337.215V69.6758ZM337.215 75.2188H340.707C342.441 75.2188 343.309 74.5898 343.309 73.332C343.309 72.7305 343.09 72.2656 342.652 71.9375C342.215 71.6094 341.566 71.4453 340.707 71.4453H337.215V75.2188ZM347.902 77V75.5234L349.812 75.1953V66.1367L347.902 65.8086V64.3203H354.02V65.8086L352.109 66.1367V73.2969L352.18 73.3203L357.77 64.3203H361.988V65.8086L360.078 66.1367V75.1953L361.988 75.5234V77H355.859V75.5234L357.77 75.1953V68.0234L357.699 68L352.109 77H347.902ZM369.723 77.2461C368.574 77.2461 367.574 76.9805 366.723 76.4492C365.871 75.9102 365.211 75.1641 364.742 74.2109C364.273 73.2578 364.039 72.1562 364.039 70.9062V70.4141C364.039 69.2109 364.266 68.1328 364.719 67.1797C365.172 66.2266 365.824 65.4727 366.676 64.918C367.527 64.3633 368.543 64.0859 369.723 64.0859C370.746 64.0859 371.641 64.2539 372.406 64.5898C373.18 64.9258 373.828 65.3867 374.352 65.9727L374.41 69.0195H372.605L372.207 66.8047C371.941 66.5312 371.609 66.3125 371.211 66.1484C370.812 65.9844 370.344 65.9023 369.805 65.9023C369.117 65.9023 368.512 66.1055 367.988 66.5117C367.473 66.918 367.07 67.4609 366.781 68.1406C366.492 68.8203 366.348 69.5781 366.348 70.4141V70.9062C366.348 72.2969 366.648 73.4023 367.25 74.2227C367.852 75.0352 368.672 75.4414 369.711 75.4414C370.492 75.4414 371.141 75.2266 371.656 74.7969C372.172 74.3672 372.488 73.7773 372.605 73.0273H374.68L374.703 73.0977C374.664 73.8242 374.449 74.5039 374.059 75.1367C373.668 75.7695 373.109 76.2812 372.383 76.6719C371.664 77.0547 370.777 77.2461 369.723 77.2461Z" fill="black"/>
</svg>
