<?xml version="1.0" encoding="iso-8859-1"?>
<!-- Generator: Adobe Illustrator 19.0.0, SVG Export Plug-In . SVG Version: 6.00 Build 0)  -->
<svg xmlns="http://www.w3.org/2000/svg" xmlns:xlink="http://www.w3.org/1999/xlink" version="1.1" id="Layer_1" x="0px" y="0px" viewBox="0 0 512 512" style="enable-background:new 0 0 512 512;" xml:space="preserve" width="512" height="512" fill="#ff0000">
<path d="M266,512h-20c-33.084,0-60-26.916-60-60v-10.073c0-2.649-1.669-5.052-4.252-6.118l-0.368-0.151  c-2.592-1.078-5.48-0.563-7.354,1.312l-7.121,7.122c-11.332,11.332-26.399,17.573-42.427,17.573  c-16.026,0-31.094-6.241-42.427-17.573l-14.142-14.144c-11.332-11.331-17.573-26.398-17.573-42.426  c0-16.026,6.241-31.094,17.573-42.426l7.123-7.123c1.873-1.872,2.388-4.76,1.311-7.353l-0.151-0.368  c-1.066-2.583-3.469-4.252-6.118-4.252H60c-33.084,0-60-26.916-60-60v-20c0-33.084,26.916-60,60-60h10.073  c2.649,0,5.052-1.669,6.118-4.252l0.151-0.366c1.077-2.594,0.563-5.481-1.312-7.354l-7.122-7.123  c-11.332-11.332-17.573-26.399-17.573-42.426c0-16.027,6.241-31.095,17.574-42.427L82.051,67.91  c11.333-11.333,26.4-17.574,42.427-17.574c16.027,0,31.095,6.241,42.427,17.574l7.122,7.121c1.872,1.873,4.758,2.388,7.354,1.312  l0.368-0.151c2.583-1.066,4.252-3.469,4.252-6.118V60c0-33.084,26.916-60,60-60h20c33.084,0,60,26.916,60,60v10.073  c0,2.649,1.669,5.052,4.252,6.118l0.368,0.151c2.592,1.077,5.48,0.563,7.354-1.312l7.121-7.122  c11.332-11.332,26.399-17.573,42.427-17.573c16.026,0,31.094,6.241,42.427,17.573l14.142,14.144  c11.332,11.331,17.573,26.398,17.573,42.426c0,16.026-6.241,31.094-17.573,42.426l-7.122,7.123  c-1.874,1.873-2.389,4.761-1.312,7.354l0.151,0.366c1.066,2.583,3.469,4.252,6.118,4.252H452c33.084,0,60,26.916,60,60v20  c0,27.392-18.511,51.287-45.015,58.109c-10.701,2.753-21.601-3.687-24.354-14.384c-2.753-10.697,3.687-21.601,14.384-24.354  C465.838,283.101,472,275.135,472,266v-20c0-11.028-8.972-20-20-20h-10.073c-18.903,0-35.817-11.376-43.089-28.982l-0.15-0.365  c-7.282-17.531-3.37-37.543,9.996-50.91l7.122-7.122c3.778-3.777,5.858-8.8,5.858-14.142c0-5.343-2.08-10.364-5.857-14.142  l-14.143-14.144c-3.777-3.777-8.8-5.857-14.142-5.857c-5.343,0-10.364,2.08-14.142,5.857l-7.122,7.123  c-13.371,13.367-33.381,17.276-50.984,9.966l-0.292-0.12C297.376,105.891,286,88.977,286,70.073V60c0-11.028-8.972-20-20-20h-20  c-11.028,0-20,8.972-20,20v10.073c0,18.903-11.376,35.817-28.982,43.089l-0.292,0.12c-17.605,7.313-37.614,3.401-50.983-9.966  l-7.123-7.122c-3.777-3.778-8.799-5.858-14.142-5.858c-5.342,0-10.364,2.08-14.143,5.858l-14.141,14.142  c-3.778,3.778-5.858,8.8-5.858,14.143c0,5.342,2.08,10.364,5.858,14.142l7.122,7.122c13.366,13.367,17.278,33.379,9.966,50.983  l-0.12,0.292C105.891,214.624,88.977,226,70.073,226H60c-11.028,0-20,8.972-20,20v20c0,11.028,8.972,20,20,20h10.073  c18.903,0,35.817,11.376,43.089,28.982l0.12,0.292c7.313,17.604,3.4,37.615-9.966,50.983l-7.123,7.123  c-3.777,3.776-5.857,8.799-5.857,14.141c0,5.343,2.08,10.364,5.857,14.142l14.143,14.144c3.777,3.777,8.8,5.857,14.142,5.857  c5.343,0,10.364-2.08,14.142-5.857l7.122-7.123c13.371-13.368,33.381-17.276,50.984-9.966l0.292,0.12  C214.624,406.109,226,423.023,226,441.927V452c0,11.028,8.972,20,20,20h20c8.788,0,16.459-5.624,19.088-13.993  c3.311-10.539,14.537-16.395,25.074-13.088c10.538,3.311,16.397,14.536,13.088,25.074C315.357,495.119,292.351,512,266,512z   M494.862,493.862C505.913,482.811,512,468.116,512,452.487s-6.087-30.323-17.138-41.375c-0.011-0.01-0.021-0.02-0.03-0.029  L365.146,281.938c5.991-13.042,9.833-28.134,9.854-40.274c0.042-25.882-9.942-49.569-28.873-68.5c-23.179-23.179-58.413-37-94.3-37  c-0.074,0-0.153,0-0.229,0c-11.61,0.02-22.652,1.933-34.75,6.021c-6.518,2.202-11.446,7.6-13.048,14.29  c-1.602,6.691,0.348,13.735,5.161,18.651l48.181,49.197l-6.023,25.953l-25.516,5.787l-48.921-49.026  c-4.885-4.895-11.95-6.921-18.687-5.354c-6.735,1.565-12.184,6.5-14.408,13.048c-4.305,12.674-6.406,24.407-6.425,35.871  c-0.048,29.794,9.302,59.604,25.653,81.788c19.783,26.839,48.072,41.611,79.681,41.61c0.055,0,0.113,0,0.167,0  c11.032-0.019,26.479-3.128,40.258-9.121l129.19,128.983C423.164,504.913,437.858,511,453.487,511S483.811,504.913,494.862,493.862z   M274.826,323.903c-8.281,5.933-23.632,10.082-32.229,10.097c-23.885,0.011-39.044-13.761-47.583-25.344  c-8.802-11.941-14.688-27.29-16.888-43.543l26.967,27.025c4.857,4.867,11.879,6.898,18.581,5.378l48.516-11.005  c7.477-1.696,13.325-7.516,15.059-14.982l11.338-48.844c1.544-6.654-0.414-13.636-5.193-18.517l-26.328-26.883  c19.842,2.938,38.127,11.511,50.777,24.161c11.409,11.409,17.182,24.918,17.157,40.15c-0.013,8.003-4.699,23.409-10.951,32.048  c-5.769,7.971-4.883,18.954,2.09,25.897l140.444,139.859c3.493,3.496,5.417,8.143,5.417,13.085c0,4.945-1.926,9.594-5.423,13.09  c-3.496,3.497-8.146,5.423-13.09,5.423s-9.594-1.926-13.102-5.434L300.604,326.01c-3.871-3.865-8.987-5.847-14.137-5.847  C282.409,320.163,278.33,321.394,274.826,323.903z"/>















</svg>
